<?xml version="1.0" standalone="no"?>
<!DOCTYPE svg PUBLIC "-//W3C//DTD SVG 20010904//EN"
 "http://www.w3.org/TR/2001/REC-SVG-20010904/DTD/svg10.dtd">
<svg version="1.0" xmlns="http://www.w3.org/2000/svg"
 width="1000.000000pt" height="1000.000000pt" viewBox="0 0 1000.000000 1000.000000"
 preserveAspectRatio="xMidYMid meet">
<metadata>
Created by potrace 1.11, written by Peter Selinger 2001-2013
</metadata>
<g transform="translate(0.000000,1000.000000) scale(0.100000,-0.100000)"
fill="#000000" stroke="none">
<path d="M1769 6786 c-2 -2 -22 -6 -44 -9 -228 -33 -463 -226 -552 -457 -36
-92 -44 -130 -50 -253 l-6 -117 1559 1 c1670 1 1618 -1 1744 50 169 69 301
188 386 349 55 103 80 210 83 349 l2 91 -1559 0 c-857 0 -1561 -2 -1563 -4z"/>
<path d="M5775 6766 c-109 -28 -185 -61 -273 -120 -179 -121 -293 -283 -348
-496 -20 -79 -22 -110 -23 -437 -2 -366 3 -434 41 -553 101 -316 394 -549 726
-576 l72 -6 1 323 c1 325 2 362 13 409 11 54 15 66 24 90 5 14 9 27 9 30 -2
13 60 132 97 185 45 66 175 195 196 195 6 0 10 5 10 10 0 6 6 10 14 10 8 0 21
6 28 13 16 15 70 41 81 39 4 -1 7 3 7 9 0 5 4 8 9 4 5 -3 15 0 23 7 7 7 18 13
23 13 23 1 81 18 93 27 8 7 12 7 12 -1 0 -7 8 -8 25 -1 15 6 318 10 753 10
400 0 736 2 747 4 11 2 42 7 68 10 252 34 514 237 622 481 37 82 65 192 71
274 l5 71 -1518 -1 -1518 -1 -90 -22z"/>
<path d="M1298 5410 c-70 -21 -130 -78 -162 -154 -13 -32 -15 -77 -13 -269 2
-230 2 -232 28 -277 31 -53 95 -105 147 -120 25 -6 494 -10 1402 -9 1338 0
1366 1 1424 21 290 97 379 458 170 684 -36 38 -105 85 -164 110 -44 18 -88 19
-1425 21 -759 1 -1392 -2 -1407 -7z"/>
<path d="M8049 5104 c-1 -349 -2 -364 -10 -379 -3 -5 -5 -26 -4 -47 0 -20 -3
-34 -7 -32 -5 3 -8 -4 -8 -15 0 -19 -6 -37 -36 -108 -8 -17 -14 -36 -14 -42 0
-6 -3 -11 -7 -11 -5 0 -17 -19 -28 -41 -10 -23 -25 -44 -32 -46 -7 -3 -13 -12
-13 -19 0 -8 -7 -17 -15 -20 -8 -4 -12 -10 -9 -15 3 -5 0 -9 -6 -9 -5 0 -19
-15 -30 -32 -11 -18 -20 -29 -20 -24 0 4 -18 -7 -39 -25 -69 -60 -91 -78 -91
-73 0 3 -12 -3 -27 -14 -31 -21 -64 -36 -75 -34 -5 1 -8 -3 -8 -8 0 -5 -3 -9
-7 -9 -5 1 -10 0 -13 -1 -3 -1 -12 -3 -20 -5 -37 -7 -45 -10 -50 -17 -13 -17
-107 -22 -495 -25 -923 -7 -1152 -10 -1190 -18 -22 -4 -76 -20 -119 -36 -307
-112 -525 -394 -552 -716 l-6 -74 1543 3 1544 3 96 32 c304 103 521 348 574
652 21 119 21 723 0 833 -71 371 -379 652 -752 684 l-73 7 -1 -319z"/>
<path d="M1124 3978 c33 -374 310 -680 681 -753 57 -11 340 -14 1579 -14
l1508 -1 -5 62 c-34 384 -308 691 -681 763 -58 12 -343 14 -1579 15 l-1509 0
6 -72z"/>
</g>
</svg>
